<svg width="88" height="36" viewBox="0 0 88 36" fill="none" xmlns="http://www.w3.org/2000/svg">
<path fill-rule="evenodd" clip-rule="evenodd" d="M0.0683125 8.35523L0 10.6206L0.000193754 10.6205C6.47235e-05 10.6281 0 10.6358 0 10.6434V18.424C0 18.8359 0.16652 19.2309 0.462922 19.5221L9.33372 28.2383C9.87833 28.7734 10.7613 28.7734 11.3059 28.2383L20.1767 19.5221C20.4731 19.2309 20.6397 18.8359 20.6397 18.424V10.6434C20.6397 10.6358 20.6396 10.6281 20.6395 10.6205L20.6397 10.6206L20.5713 8.35523C20.5618 8.03939 20.1764 7.88351 19.9433 8.10127L18.3219 9.61641C18.3004 9.63505 18.2794 9.65442 18.259 9.67451L15.8882 12.004L13.5174 14.3334C12.9728 14.8686 12.9728 15.7362 13.5174 16.2713C14.062 16.8064 14.945 16.8064 15.4897 16.2713L17.8505 13.9516V17.9321L10.3198 25.3315L2.78914 17.9321V13.9516L5.15 16.2713C5.69462 16.8064 6.57761 16.8064 7.12222 16.2713C7.66684 15.7362 7.66684 14.8686 7.12222 14.3334L4.75145 12.004L2.38068 9.67451C2.36023 9.65442 2.33925 9.63504 2.31779 9.6164L0.696311 8.10127C0.463275 7.88351 0.0778368 8.03939 0.0683125 8.35523Z" fill="#6366F1"/>
<path d="M88.0001 18.1309V18.9006C88.0001 20.6016 87.6016 21.8369 86.8048 22.6066C86.0196 23.3763 84.754 23.7612 83.0079 23.7612C81.2618 23.7612 79.9962 23.3763 79.2111 22.6066C78.4376 21.8369 78.0509 20.5873 78.0509 18.8578V18.1166C78.0509 16.5392 78.4435 15.3656 79.2286 14.5959C80.0255 13.8262 81.2794 13.4413 82.9903 13.4413C84.713 13.4413 85.9786 13.831 86.7872 14.6102C87.5958 15.3894 88.0001 16.563 88.0001 18.1309ZM85.5567 18.8578V18.3304C85.5567 17.4182 85.4161 16.6912 85.1349 16.1496C84.8067 15.5224 84.1036 15.2088 83.0255 15.2088C81.9357 15.2088 81.2267 15.5224 80.8985 16.1496C80.629 16.6627 80.4943 17.3897 80.4943 18.3304V18.8578C80.4943 20.0837 80.7052 20.9104 81.1271 21.338C81.2911 21.5186 81.5314 21.6754 81.8478 21.8084C82.1759 21.9319 82.5626 21.9937 83.0079 21.9937C83.4649 21.9937 83.8517 21.9319 84.1681 21.8084C84.4845 21.6849 84.7306 21.5328 84.9063 21.3523C85.0821 21.1717 85.2169 20.9342 85.3106 20.6396C85.4747 20.1739 85.5567 19.58 85.5567 18.8578Z" fill="#6366F1"/>
<path d="M75.9119 23.6756H73.4685V13.5269H75.9119V23.6756Z" fill="#6366F1"/>
<path d="M70.3233 14.4106C71.0499 14.9903 71.4132 15.8455 71.4132 16.9763C71.4132 18.1071 71.0499 18.9671 70.3233 19.5563C69.6085 20.1359 68.5948 20.4257 67.2823 20.4257H64.8741V23.6756H62.4308V13.5269H67.2823C68.5948 13.5269 69.6085 13.8214 70.3233 14.4106ZM68.9698 16.9763C68.9698 15.855 68.3663 15.2943 67.1593 15.2943H64.8741V18.644H67.1593C67.7452 18.644 68.1905 18.5157 68.4952 18.2592C68.8116 18.0026 68.9698 17.575 68.9698 16.9763Z" fill="#6366F1"/>
<path d="M60.483 23.6756H56.7565C55.3502 23.6756 54.3307 23.4571 53.6979 23.02C53.0768 22.5733 52.7662 21.8511 52.7662 20.8534V13.5269H55.2096V20.8534C55.2096 21.2525 55.3209 21.528 55.5436 21.6801C55.7662 21.8321 56.1705 21.9082 56.7565 21.9082H60.483V23.6756Z" fill="#6366F1"/>
<path d="M50.6296 18.1309V18.9006C50.6296 20.6016 50.2312 21.8369 49.4343 22.6066C48.6491 23.3763 47.3835 23.7612 45.6374 23.7612C43.8913 23.7612 42.6257 23.3763 41.8406 22.6066C41.0671 21.8369 40.6804 20.5873 40.6804 18.8578V18.1166C40.6804 16.5392 41.073 15.3656 41.8581 14.5959C42.655 13.8262 43.9089 13.4413 45.6199 13.4413C47.3425 13.4413 48.6081 13.831 49.4167 14.6102C50.2253 15.3894 50.6296 16.563 50.6296 18.1309ZM48.1862 18.8578V18.3304C48.1862 17.4182 48.0456 16.6912 47.7644 16.1496C47.4362 15.5224 46.7331 15.2088 45.655 15.2088C44.5652 15.2088 43.8562 15.5224 43.5281 16.1496C43.2585 16.6627 43.1238 17.3897 43.1238 18.3304V18.8578C43.1238 20.0837 43.3347 20.9104 43.7566 21.338C43.9206 21.5186 44.1609 21.6754 44.4773 21.8084C44.8054 21.9319 45.1921 21.9937 45.6374 21.9937C46.0945 21.9937 46.4812 21.9319 46.7976 21.8084C47.114 21.6849 47.3601 21.5328 47.5359 21.3523C47.7116 21.1717 47.8464 20.9342 47.9402 20.6396C48.1042 20.1739 48.1862 19.58 48.1862 18.8578Z" fill="#6366F1"/>
<path d="M39.9411 13.5269L36.0036 23.1055C35.7927 23.5426 35.4177 23.7612 34.8786 23.7612C34.3161 23.7612 33.9294 23.5426 33.7185 23.1055L29.8337 13.5269H32.365L34.8786 20.1407L37.3923 13.5269H39.9411Z" fill="#6366F1"/>
</svg>
