<svg width="256" height="256" viewBox="0 0 256 256" fill="none" xmlns="http://www.w3.org/2000/svg">
<path fill-rule="evenodd" clip-rule="evenodd" d="M87.0231 57.5449L86.75 66.6L86.7508 66.5996C86.7503 66.6301 86.75 66.6607 86.75 66.6912V97.7913C86.75 99.4376 87.4156 101.017 88.6004 102.181L124.058 137.021C126.235 139.16 129.765 139.16 131.942 137.021L167.4 102.181C168.584 101.017 169.25 99.4376 169.25 97.7913V66.6912C169.25 66.6607 169.25 66.6301 169.249 66.5996L169.25 66.6L168.977 57.5449C168.939 56.2824 167.398 55.6594 166.467 56.5298L159.985 62.586C159.9 62.6605 159.816 62.738 159.734 62.8183L150.258 72.1295L140.781 81.4407C138.604 83.5797 138.604 87.0477 140.781 89.1866C142.958 91.3256 146.488 91.3256 148.665 89.1866L158.101 79.9143V95.8251L128 125.402L97.8986 95.8251V79.9143L107.335 89.1866C109.512 91.3256 113.042 91.3256 115.219 89.1866C117.396 87.0477 117.396 83.5797 115.219 81.4407L105.742 72.1295L96.266 62.8183C96.1842 62.738 96.1004 62.6605 96.0146 62.586L89.5333 56.5298C88.6018 55.6594 87.0611 56.2824 87.0231 57.5449Z" fill="url(#paint0_linear_7_194)"/>
<path d="M244.25 177.37V180.446C244.25 187.246 242.657 192.183 239.472 195.26C236.334 198.337 231.275 199.875 224.296 199.875C217.316 199.875 212.257 198.337 209.119 195.26C206.027 192.183 204.482 187.189 204.482 180.276V177.313C204.482 171.008 206.051 166.317 209.189 163.24C212.374 160.163 217.386 158.625 224.225 158.625C231.111 158.625 236.17 160.182 239.402 163.297C242.634 166.412 244.25 171.103 244.25 177.37ZM234.484 180.276V178.167C234.484 174.521 233.921 171.615 232.797 169.45C231.486 166.943 228.675 165.69 224.366 165.69C220.01 165.69 217.176 166.943 215.864 169.45C214.787 171.501 214.248 174.407 214.248 178.167V180.276C214.248 185.175 215.091 188.48 216.777 190.189C217.433 190.911 218.394 191.538 219.658 192.069C220.97 192.563 222.516 192.81 224.296 192.81C226.122 192.81 227.668 192.563 228.933 192.069C230.198 191.576 231.181 190.968 231.884 190.246C232.586 189.525 233.125 188.575 233.5 187.397C234.156 185.536 234.484 183.162 234.484 180.276Z" fill="#E3236C"/>
<path d="M195.932 199.533H186.165V158.967H195.932V199.533Z" fill="#E3236C"/>
<path d="M173.593 162.499C176.497 164.816 177.949 168.235 177.949 172.755C177.949 177.275 176.497 180.712 173.593 183.067C170.736 185.384 166.684 186.543 161.438 186.543H151.812V199.533H142.045V158.967H161.438C166.684 158.967 170.736 160.144 173.593 162.499ZM168.183 172.755C168.183 168.273 165.771 166.032 160.946 166.032H151.812V179.421H160.946C163.288 179.421 165.068 178.908 166.286 177.883C167.551 176.857 168.183 175.148 168.183 172.755Z" fill="white"/>
<path d="M134.26 199.533H119.364C113.743 199.533 109.668 198.66 107.139 196.912C104.656 195.127 103.415 192.24 103.415 188.252V158.967H113.181V188.252C113.181 189.847 113.626 190.949 114.516 191.557C115.406 192.164 117.022 192.468 119.364 192.468H134.26V199.533Z" fill="white"/>
<path d="M94.8741 177.37V180.446C94.8741 187.246 93.2815 192.183 90.0963 195.26C86.9579 198.337 81.8991 199.875 74.9197 199.875C67.9403 199.875 62.8814 198.337 59.743 195.26C56.6515 192.183 55.1057 187.189 55.1057 180.276V177.313C55.1057 171.008 56.6749 166.317 59.8133 163.24C62.9985 160.163 68.0105 158.625 74.8494 158.625C81.7351 158.625 86.794 160.182 90.0261 163.297C93.2581 166.412 94.8741 171.103 94.8741 177.37ZM85.1077 180.276V178.167C85.1077 174.521 84.5456 171.615 83.4214 169.45C82.1098 166.943 79.2993 165.69 74.9899 165.69C70.6337 165.69 67.7998 166.943 66.4882 169.45C65.4108 171.501 64.8722 174.407 64.8722 178.167V180.276C64.8722 185.175 65.7153 188.48 67.4016 190.189C68.0574 190.911 69.0176 191.538 70.2824 192.069C71.5939 192.563 73.1397 192.81 74.9197 192.81C76.7465 192.81 78.2923 192.563 79.557 192.069C80.8217 191.576 81.8054 190.968 82.508 190.246C83.2106 189.525 83.7493 188.575 84.124 187.397C84.7798 185.536 85.1077 183.162 85.1077 180.276Z" fill="white"/>
<path d="M52.1508 158.967L36.4121 197.254C35.5689 199.001 34.07 199.875 31.9153 199.875C29.6669 199.875 28.1211 199.001 27.278 197.254L11.75 158.967H21.8678L31.9153 185.403L41.9628 158.967H52.1508Z" fill="white"/>
<defs>
<linearGradient id="paint0_linear_7_194" x1="86.75" y1="113.603" x2="171.099" y2="113.28" gradientUnits="userSpaceOnUse">
<stop stop-color="#FFC95F"/>
<stop offset="0.505" stop-color="#FD468A"/>
<stop offset="1" stop-color="#B31EA7"/>
</linearGradient>
</defs>
</svg>
