<svg width="256" height="256" viewBox="0 0 256 256" fill="none" xmlns="http://www.w3.org/2000/svg">
<path fill-rule="evenodd" clip-rule="evenodd" d="M28.662 31.4422L28 53.3939L28.0019 53.3931C28.0006 53.467 28 53.541 28 53.6151V129.009C28 133 29.6136 136.828 32.4858 139.65L118.444 224.111C123.722 229.296 132.278 229.296 137.556 224.111L223.514 139.65C226.386 136.828 228 133 228 129.009V53.6151C228 53.541 227.999 53.467 227.998 53.3931L228 53.3939L227.338 31.4422C227.246 28.3817 223.511 26.8712 221.253 28.9813L205.54 43.6631C205.332 43.8437 205.129 44.0314 204.931 44.2261L181.958 66.7988L158.985 89.3715C153.708 94.5569 153.708 102.964 158.985 108.149C164.262 113.335 172.819 113.335 178.096 108.149L200.973 85.6711V124.243L128 195.944L55.027 124.243V85.6711L77.904 108.149C83.1813 113.335 91.7376 113.335 97.015 108.149C102.292 102.964 102.292 94.5569 97.015 89.3715L74.042 66.7988L51.069 44.2261C50.8709 44.0314 50.6676 43.8437 50.4595 43.6631L34.7473 28.9813C32.4892 26.8712 28.7542 28.3817 28.662 31.4422Z" fill="url(#paint0_linear_8_42)"/>
<defs>
<linearGradient id="paint0_linear_8_42" x1="28" y1="167.341" x2="232.482" y2="166.559" gradientUnits="userSpaceOnUse">
<stop stop-color="#FFC95F"/>
<stop offset="0.505" stop-color="#FD468A"/>
<stop offset="1" stop-color="#B31EA7"/>
</linearGradient>
</defs>
</svg>
